<svg xmlns="http://www.w3.org/2000/svg" width="301" height="272" viewBox="0 0 301 272">
  <defs>
    <filter id="woman-man-graphic-a">
      <feColorMatrix in="SourceGraphic" values="0 0 0 0 0.807843 0 0 0 0 0.054902 0 0 0 0 0.176471 0 0 0 1.000000 0"/>
    </filter>
  </defs>
  <g fill="none" fill-rule="evenodd" transform="translate(2 2)">
    <path stroke="#1A428A" stroke-linecap="round" stroke-linejoin="round" stroke-width="3" d="M0,264 C0.700142074,260.995918 1.36515909,258.000758 1.98010978,255.034722 C5.72564707,236.963003 12.7928618,217.533687 21.7020451,201.344077 C31.5556733,183.446058 47.1438608,168.514074 57.0711467,150.324805 C66.0154551,133.931582 66.0741716,120.1688 61.866766,105.610719 C59.8601814,98.6632064 56.8826771,91.5385816 53.4315088,83.8634665 C45.8374182,66.9698693 45.8434471,48.8451471 54.85853,32.2372906 C66.4154614,10.9465932 87.1114619,2.6619505 110.090591,0.41748246 C128.90609,-1.42028398 148.866562,2.79734277 164.713469,13.3086111 C166.034591,14.1862994 167.373275,15.1316838 168.706192,16.1361056 C175.087944,20.9454176 181.310847,27.1658529 184.59137,34.1870968 C188.43704,42.4276583 186.459814,51.2837823 187.363104,59.9751266 C188.334024,69.305386 192.929902,74.9278388 187.036494,83.8841951 C180.007287,94.5633919 201.765428,107.475249 198.70247,118.451732 C196.989992,124.566162 188.381207,122.348458 186.842257,127.847063 C186.006595,130.821758 189.360777,133.327827 187.895485,136.170015 C186.542121,138.800193 182.452411,138.832467 180.001521,140.034205 C190.308367,145.609428 179.224575,149.508778 179.889592,154.562635 C181.081223,163.663567 187.983822,169.48596 179.607281,173.249918 C169.153381,177.950339 153.124034,170.351841 142.673017,174.757862 C142.349552,174.893255 142.031592,175.043603 141.71966,175.20261 C132.063152,180.153349 125.831599,187.940504 123.883731,198.225069 C122.203757,207.081193 131.771928,226.884675 142.428715,245.277558 C146.262589,251.892362 150.234604,258.324545 153.877125,264" transform="matrix(-1 0 0 1 199 0)"/>
    <path stroke="#1A428A" stroke-linecap="round" stroke-linejoin="round" stroke-width="3" d="M88.9342006,268 C90.7747335,261.824402 92.8060148,254.875906 94.7738185,247.76418 C100.51143,227.022568 105.720694,204.886394 104.1666,196.431571 C102.55566,187.649023 99.0435516,179.46825 95.0381504,171.548266 C93.1657208,167.842907 91.1821266,164.19501 89.2367453,160.566372 C84.5210904,151.780352 77.4589771,144.509816 66.9734979,143.475498 C58.6633088,142.657452 39.4760377,147.502266 36.3207934,135.972588 C35.2571498,132.098631 38.7534675,128.972629 39.5843601,125.627198 C40.8134874,120.686719 37.7087725,119.92582 36.7695575,115.975457 C35.8590812,112.130232 38.8201032,109.398887 38.8933708,106.403595 C38.9284255,104.856223 37.2312698,103.468607 37.2600084,101.622242 C37.291905,99.8683851 38.954006,98.5568597 39.4251926,96.8727778 C40.6732684,92.4418807 40.8229617,90.426918 37.8650978,86.8105937 C35.4100012,83.8089876 31.5413451,83.1882705 33.5666261,78.4738515 C35.0310308,75.061486 40.2402947,74.0331668 43.1091006,71.9961034 C46.2548707,69.7582382 49.6270756,67.1159282 52.5562009,64.5980143 C60.5641611,57.7129797 58.9626954,52.6610497 61.1212476,43.3629222 C62.7356615,36.4137953 67.0565556,29.2007216 71.7403138,23.7667633 C84.326868,9.15275891 103.635094,1.08943536 123.210494,0.102791947 C141.293066,-0.807761526 159.6046,4.32057414 173.050785,15.9073986 C182.042489,23.658785 188.649522,33.8958813 192.400382,45.1325658 C196.259563,56.7133916 194.470192,68.3289471 201.914433,78.9067117 C208.361983,88.0744444 217.942986,91.1177263 226.65141,96.8093169 C227.698947,97.4903377 228.733537,98.2161915 229.746335,98.9928772 C238.929103,106.014937 238.168004,121.0176 237.215841,131.251854 C236.066614,143.561376 234.515993,157.35765 241.670638,168.266295 C248.82181,179.168942 263.210684,182.730961 269.591598,194.327257 C275.453322,204.984901 269.378111,217.615831 272.002165,228.945023 C273.393303,234.945709 285.610676,253.519548 297,268"/>
    <g filter="url(#woman-man-graphic-a)" opacity=".231">
      <path fill="#FFF" d="M49.2228282,0.408826757 C48.8575231,-0.0569883722 48.1859157,-0.136429712 47.7221013,0.230857521 C47.3070285,0.559971643 47.2028755,1.13617928 47.4486356,1.58755053 L29.8832045,21.9652859 C29.7226139,21.9487786 29.5553534,21.9921102 29.418364,22.1009552 C29.3511519,22.154088 29.2977928,22.2190855 29.2577734,22.2897573 L12.120755,23.9657633 C11.8960307,23.70371 11.5050721,23.6624418 11.2326325,23.8785841 C10.9524968,24.1009167 10.9042683,24.509988 11.125401,24.7916437 C11.1556721,24.829301 11.1895347,24.8628314 11.2254495,24.892235 L9.81707504,45.078589 C9.79501307,45.0920011 9.77243804,45.1043816 9.75191527,45.120373 C9.51436432,45.3086593 9.44612614,45.6295198 9.56361894,45.8946682 L1.2565184,60.0068548 C0.966121335,59.9547536 0.656740715,60.0187194 0.406363032,60.216291 C-0.0564252262,60.5840941 -0.135950925,61.2598613 0.229867288,61.7251606 C0.544378599,62.1264941 1.08566642,62.2389501 1.52587964,62.028998 L25.7273454,85.7252147 C25.7001528,85.8980254 25.7396591,86.0811532 25.8566388,86.229203 C25.8658741,86.2415834 25.8776746,86.2508688 25.887936,86.2617017 L20.7085042,109.901175 C20.5766455,109.938316 20.4494044,110.00125 20.33499,110.09204 C19.8716887,110.459327 19.792676,111.134579 20.1579812,111.60091 C20.5232863,112.066725 21.1954067,112.146166 21.658195,111.778879 C21.7592696,111.698922 21.8377692,111.602973 21.9013897,111.499803 L53.0262089,120.992011 C53.0390356,121.203511 53.1129176,121.412431 53.2529854,121.591432 C53.6182905,122.056731 54.290411,122.136689 54.7531992,121.768885 C55.2170136,121.401598 55.2960263,120.725831 54.930208,120.260016 C54.8973716,120.217716 54.8583784,120.181606 54.8198982,120.145497 L65.6400108,94.2042881 L98.4066509,66.4147789 C98.7729821,66.6221518 99.2424403,66.6015177 99.5933795,66.323473 C100.056681,65.9556699 100.135693,65.2804185 99.7703883,64.8146034 C99.4497202,64.4065638 98.8940664,64.2951395 98.4492356,64.5210831 L86.4926751,53.3822724 L85.562994,40.1857246 C85.6394413,40.1511625 85.7138363,40.1088625 85.7820745,40.054698 C86.2453758,39.6868949 86.3243884,39.0116435 85.9595964,38.5458284 C85.7282022,38.2512764 85.3752108,38.112512 85.0299153,38.1419156 L71.1426761,8.64596516 C71.2678649,8.42311673 71.2550382,8.13733424 71.0877777,7.92377116 C70.8697234,7.64675818 70.4736341,7.59672045 70.1940115,7.80718842 L49.4485786,1.02836604 C49.4398564,0.810676131 49.3675137,0.592986226 49.2228282,0.408826757 L49.2228282,0.408826757 Z M69.9646696,8.51906536 C69.9872446,8.59334817 70.0221333,8.66453586 70.0729272,8.72901747 C70.1750279,8.85901239 70.3166349,8.93690617 70.4669642,8.96373052 L83.8200985,37.3227413 L49.6933125,1.89448298 L69.9646696,8.51906536 Z M53.6706236,89.8917583 C53.5392779,90.00473 53.4628306,90.1584542 53.4458994,90.320432 L42.6447703,96.9702911 C42.6042378,96.9517204 42.5626793,96.9377924 42.5195815,96.9285071 L30.2515881,72.3723636 C30.3711331,72.2434004 30.4537373,72.0922555 30.4983743,71.9297618 L46.6477348,70.4962067 C46.6574831,70.5106506 46.6646661,70.5261262 46.6754405,70.5400542 C46.7482963,70.631876 46.8406488,70.6958418 46.9417234,70.73711 L53.6706236,89.8917583 Z M10.203416,46.2784627 C10.3265526,46.2686615 10.448663,46.2237823 10.552816,46.14073 C10.6159235,46.0912081 10.6651781,46.0308533 10.7041714,45.9658559 L19.1462091,45.3458007 L20.5176426,48.9784366 C20.4560743,49.0707742 20.4181072,49.1754923 20.4088719,49.2838214 L2.11898743,60.0109816 L4.72691727,55.5808373 L10.203416,46.2784627 Z M46.5943756,69.7497676 L30.4342406,71.1843544 C30.429623,71.1740374 30.4255185,71.1642362 30.4209008,71.1549508 L42.1835212,58.190021 C42.3046055,58.2379953 42.4313336,58.263788 42.5601139,58.2663672 L46.5943756,69.7497676 Z M26.764771,86.3370162 C27.0443936,86.1146836 27.0926221,85.7061282 26.8714893,85.4239567 C26.8622541,85.4120921 26.8509666,85.4033226 26.8407052,85.3924896 L29.6092256,72.7566739 L41.8305298,97.2189322 C41.7720399,97.3138491 41.7402296,97.4211465 41.7350989,97.5299915 L21.4996567,109.988354 C21.4852907,109.981132 21.4704117,109.976489 21.4560458,109.969783 L26.6154679,86.4226478 C26.6672879,86.4004661 26.7180817,86.3736418 26.764771,86.3370162 L26.764771,86.3370162 Z M48.2633892,2.17407523 L59.0804234,47.4829791 L32.600418,34.36123 L43.2132508,12.5514871 L48.2633892,2.17407523 Z M28.8934944,69.0600724 L21.5863653,49.7001147 C21.7382338,49.4721077 21.7372076,49.1641436 21.5591727,48.9371683 C21.4678464,48.8211014 21.3452229,48.7473345 21.2133642,48.7127723 L19.9214564,45.2890569 L26.3466197,44.8170516 C26.3809954,44.8928819 26.4225539,44.9671647 26.4764262,45.0357732 C26.6211117,45.2204485 26.8150518,45.3416739 27.0238708,45.400997 L28.8934944,69.0600724 Z M26.4045965,43.8142336 C26.355855,43.8952225 26.3168617,43.9808541 26.2917213,44.0706125 L19.9271001,44.5379752 C19.9050382,44.4554387 19.866558,44.3759974 19.8111465,44.3042938 C19.7198202,44.1887428 19.5971967,44.1149758 19.4648249,44.0804137 L12.8416169,26.5321312 L26.4045965,43.8142336 Z M41.9182646,56.3541007 C41.5103747,56.6775404 41.401091,57.2403359 41.6304328,57.6880962 L29.8678124,70.6525101 C29.8329237,70.6385821 29.7990612,70.6246541 29.7626333,70.614337 L27.7652556,45.3416739 C27.8386245,45.3076276 27.9104541,45.2663594 27.9771531,45.2132266 C28.0146071,45.1838229 28.0459043,45.1487449 28.0782277,45.1152145 L48.024299,53.9151484 L43.2927765,56.4005274 C42.9131054,56.0564536 42.3328243,56.0244707 41.9182646,56.3541007 L41.9182646,56.3541007 Z M28.37786,44.4301619 C28.3917129,44.1779099 28.3224485,43.9189517 28.1541619,43.7048728 C28.1336391,43.6790802 28.1095249,43.6589619 28.0874629,43.6357485 L32.154048,35.2779006 C32.2320345,35.2557189 32.3069426,35.2180616 32.3741546,35.1649288 C32.3946774,35.1484215 32.4116086,35.1293349 32.4300791,35.1112801 L58.8736565,48.2154902 L48.8698367,53.4709991 L28.37786,44.4301619 Z M59.3918563,48.787571 L61.8807541,59.2108938 L49.7435933,53.8563412 L59.3918563,48.787571 Z M84.1315314,39.6053902 L70.1257733,52.342313 C69.9574866,52.3190996 69.7799648,52.3608837 69.6363054,52.4748872 C69.4680188,52.6084931 69.3854147,52.8091599 69.3925976,53.0093108 L62.6344525,59.1551817 L60.1337541,48.6807895 C60.378488,48.4527825 60.4144028,48.0715672 60.2040445,47.8028079 C60.1157966,47.6908678 59.9983038,47.6171009 59.8710627,47.581507 L49.0642899,2.31851403 L84.1597502,38.7511378 C84.0335353,39.0178338 84.0217347,39.3263138 84.1315314,39.6053902 L84.1315314,39.6053902 Z M31.3341637,34.568087 C31.3131279,34.7254221 31.3505819,34.8889475 31.4470389,35.0271961 L27.4204732,43.3030234 C27.2763008,43.2885796 27.1295631,43.3050868 26.9889821,43.3504819 L12.9442307,25.4550305 L31.3341637,34.568087 Z M2.13284029,61.0566153 C2.13232722,60.9967764 2.12668346,60.9379692 2.11642208,60.8786461 L20.7859777,49.9296692 C20.8203533,49.9446289 20.8547289,49.9570094 20.8901307,49.9662948 L28.7693317,70.8407964 C28.7318776,70.8743269 28.6939105,70.9078573 28.6626133,70.9449987 L2.13284029,61.0566153 Z M21.9937421,110.562498 L42.1383712,98.1603637 C42.1984002,98.1840929 42.2599685,98.2000844 42.3235891,98.2057587 L53.3104491,120.198629 C53.287361,120.223906 53.2652991,120.249699 53.2447763,120.276523 L22.0460752,110.762133 C22.0358138,110.694556 22.0178564,110.628011 21.9937421,110.562498 L21.9937421,110.562498 Z M47.2967671,69.5000949 L43.2640446,58.0192737 C43.5508502,57.7773387 43.6796305,57.4157259 43.6365327,57.0649459 L48.8985686,54.3004905 L61.7878886,59.9872523 C61.8073852,60.0837168 61.8463785,60.1770862 61.9110252,60.2596227 C62.132671,60.5412783 62.5390216,60.5897685 62.8196704,60.3674359 C63.002836,60.2214495 63.0849271,59.9960218 63.0587606,59.7788478 L69.8461507,53.6056367 C69.9954537,53.6520634 70.1586097,53.6417464 70.3043213,53.5746855 L97.4236106,65.2381186 L47.6179483,69.6589775 C47.5255959,69.5743777 47.4142599,69.5212448 47.2967671,69.5000949 L47.2967671,69.5000949 Z M31.9436897,34.0068391 C31.9272715,34.007355 31.9113663,34.0099342 31.8954612,34.0119976 L12.9709103,24.6343086 L29.3311422,23.034133 C29.5563795,23.2956704 29.9468251,23.3374545 30.2192647,23.1213121 C30.4244923,22.9583026 30.504018,22.6957335 30.4450151,22.455862 L46.7939595,3.48950001 L31.9436897,34.0068391 Z M18.7691033,44.3460779 C18.7111265,44.4327412 18.6731594,44.5297215 18.6613588,44.6308287 L10.6513253,45.2189009 C10.6236195,45.1848546 10.5928354,45.1539035 10.559999,45.1270791 L11.8862824,26.1132587 L18.7691033,44.3460779 Z M2.58844558,62.025387 L28.4071049,71.6475903 C28.407618,71.8802399 28.4779085,72.1139213 28.6323422,72.3104612 C28.7072503,72.405894 28.7965243,72.4806927 28.8929813,72.5431109 L26.1439575,85.0886523 L2.58844558,62.025387 Z M64.9889262,93.8318424 L54.1328988,119.857135 C54.0810788,119.855071 54.0282327,119.854556 53.9758997,119.860746 L42.9664646,97.8229959 C42.9951964,97.7569668 43.0146931,97.6883583 43.0208499,97.6171706 L53.8153091,90.9714383 C54.0297719,91.0720296 54.290411,91.052943 54.4894817,90.8956079 C54.7696174,90.6732753 54.8173329,90.2647199 54.5962001,89.9825484 C54.5525892,89.9268363 54.4997431,89.8829888 54.4443317,89.8458474 L47.6702814,70.5632676 C47.7144053,70.512714 47.7472417,70.4559702 47.7734082,70.3961313 L97.7925072,65.9567016 L65.0920531,93.6904987 C65.04639,93.7291877 65.0104751,93.777162 64.9889262,93.8318424 L64.9889262,93.8318424 Z M85.7589864,53.583455 C85.7666824,53.6778561 85.8087541,53.7665828 85.8780184,53.8310644 L97.1014033,64.28637 L70.6788617,52.9221316 C70.6768094,52.9009817 70.6727049,52.8803476 70.6686003,52.8597134 L82.2562642,42.3203237 L84.6286953,40.1625112 C84.6902636,40.1944941 84.7538842,40.2208026 84.819557,40.2398892 L85.7589864,53.583455 Z" transform="translate(60 23)"/>
    </g>
  </g>
</svg>
