<svg xmlns="http://www.w3.org/2000/svg" xmlns:xlink="http://www.w3.org/1999/xlink" width="314" height="232" viewBox="0 0 314 232">
  <defs>
    <polygon id="mind-health-logo-white-a" points="0 0 102 0 102 232 0 232"/>
    <polygon id="mind-health-logo-white-c" points="0 232 314 232 314 0 0 0"/>
  </defs>
  <g fill="none" fill-rule="evenodd">
    <mask id="mind-health-logo-white-b" fill="#fff">
      <use xlink:href="#mind-health-logo-white-a"/>
    </mask>
    <path fill="#FFF" d="M78.0574442,0 L23.9269423,0 C10.7250386,0 0,10.778069 0,24.0134693 L0,207.955761 C0,221.213954 10.7250386,232.00057 23.9269423,232.00057 L78.0191202,232.00057 C91.2210239,232.00057 102,221.213954 102,207.955761 L102,24.0134693 C102,10.778069 91.2522509,0 78.0574442,0" mask="url(#mind-health-logo-white-b)"/>
    <path fill="#D81F34" d="M65.3710745 42.7959105L65.4248917 43.5792257C67.0776458 44.5402439 67.9118121 45.3235591 69.5659824 46.399729 73.9747427 49.1804268 79.4017809 54.1291021 78.7120712 71.1701167 79.9456177 74.8890867 80.4965357 82.1962373 81.6366102 84.5404964 83.9252568 89.1039115 85.4647115 92.0694205 86.1303451 96.3883161 86.1303451 96.3883161 86.7959787 103.095541 87.6528049 103.578894 92.2074381 104.609571 90.8917496 105.06307 91.5573832 105.846385 92.2683365 106.760489 94.8940486 106.713576 94.8940486 109.181516 95.804692 110.402692 96.4788231 111.677889 97 113L97 24.3162118C97 14.2056174 88.8084581 6 78.7658884 6L61.3220396 6C64.1233656 6.9979805 65.6996426 8.18219382 66.6258647 10.0573167 68.8776889 10.2478144 71.555802 15.3201711 67.383554 22.8036032 69.2359981 24.0404167 67.7900153 25.8842638 66.4658293 28.0280738 66.0749466 28.720405 65.6543229 29.9415805 64.4151114 29.856283 62.8374182 33.2070523 60.9155782 36.4497781 59.4766767 36.6488056 59.033393 37.1947094 58.7189874 38.6319719 59.3775397 39.3072436 61.4976535 40.2682619 64.0936245 41.5747349 65.3710745 42.7959105M97 124.96849C94.6282327 131.003725 88.7172771 135.262384 81.8093272 135.262384 72.775308 135.262384 65.4895795 127.951258 65.4895795 118.92472 65.4895795 111.222435 70.787 104.757636 77.9633715 103.035112 76.0830003 98.3155953 72.1149057 90.674473 70.9332827 88.1667853 69.8113089 85.6761663 67.125673 70.140735 66.5419625 67.0655104 66.4113023 66.3955609 59.5033524 71.0780953 59.4962513 71.3696869 59.0886481 71.7622687 54.3067675 84.2623027 54.1065165 84.9379418 54.0142022 85.3618164 54 87.0302893 54 87.0302893 54 87.0302893 56.3476236 87.3218809 57.699673 91.4269216 59.0432011 95.5319623 63.1192324 110.499857 63.1192324 110.499857 63.1192324 110.499857 62.0214024 111.644887 61.967434 111.576612 67.125673 128.858748 65.3219936 136.290778 67.6397926 141.358782 70.541302 148.507755 71.3238432 147.568972 73.8191697 153.574337 75.6072266 157.948211 77.6026357 175.153537 78.270139 175.91452 81.0566106 179.442067 82.5535225 182.211476 82.5535225 184.201411 82.5535225 186.206992 80.1973775 192.134125 81.0566106 195.586285 81.5792516 197.616047 81.8476732 202.167721 82.7921194 203.028272 82.7921194 203.028272 83.6584536 204.742261 83.2366483 205.496132 83.1145094 205.756431 82.86029 206.157547 82.9753278 206.471897 84.5120058 211.899768 89.4614724 221.1482 81.44007 226L81.6104964 226C90.3675727 224.638765 97 217.112857 97 207.880071L97 124.96849z"/>
    <path fill="#1C4688" d="M76.6561011,204.070347 C73.6940312,201.432397 75.6744683,200.322432 75.5514064,199.282375 C73.6010193,191.231563 67.1903558,186.36655 70.5087327,183.707199 C69.6873665,181.053556 68.0174458,177.715101 68.0789768,177.722234 C58.0866412,172.001207 49.5810644,162.710601 48.141527,161.345259 C46.3857493,159.449188 43.4007841,157.535996 42.8441439,156.002305 C40.4387141,153.796642 28.6591199,137.140035 25.9217093,131.010975 L21.1423307,130.339004 C18.970146,121.479258 11.7080663,114.061896 11.5291973,105.179324 C11.4590807,101.825176 13.0531608,94.6303775 13.6484367,93.196554 C14.2294031,91.7470369 17.0126041,89.3559043 17.0126041,89.3559043 L17.0126041,86.981892 C6.58812114,87.2743635 9.58024111,86.2186128 7.78725865,82.1696664 C6.52515927,79.3790606 7.43095168,78.7613038 7.87883956,76.8181519 C9.27974125,71.0899912 13.9274723,62.2530729 15.8521023,58.2440737 C16.4402235,56.2153205 18.4521415,51.3346137 18.4521415,51.3346137 C26.2164853,35.5582748 29.1241792,36.7138938 38.3509556,35.8279192 L38.8074292,35.1730685 C48.0485151,34.7707419 46.5402921,34.0773705 47.8395962,25.1947981 C46.4945016,25.7726076 46.0924042,22.4113257 46.0924042,22.4113257 C45.356895,17.3608428 47.5004606,18.3167252 48.5135744,18.2154302 C48.7296481,9.9035338 49.5810644,7.28983758 55.5967853,5 L24.4449672,5 C14.2522983,5 6,13.2348551 6,23.3900351 L6,207.602831 C6,217.765145 14.2522983,226 24.4449672,226 L79,226 C72.7581888,222.638718 76.4400274,216.230026 76.6561011,204.070347"/>
    <path fill="#FFF" d="M33.9910543 215L33.9910543 182 40.4192207 182C44.1343749 182 46.4320723 183.983445 46.4320723 188.608188L46.4320723 193.50539C46.4320723 196.51232 45.5206476 198.038373 44.2265096 198.779517 45.5206476 199.656186 46.4320723 201.137064 46.4320723 203.630133L46.4320723 208.438398C46.4320723 212.971381 44.0039689 215 40.4192207 215L33.9910543 215zM38.3965099 200.671201L38.3965099 210.842531 40.097458 210.842531C41.6141368 210.842531 42.0266167 210.0548 42.0266167 208.483573L42.0266167 202.891812C42.0266167 201.272587 41.5220021 200.671201 40.050682 200.671201L38.3965099 200.671201zM38.3965099 186.158881L38.3965099 197.069944 40.050682 197.069944C41.6141368 197.069944 42.0266167 196.51232 42.0266167 194.712397L42.0266167 188.379492C42.0266167 186.853439 41.5673607 186.158881 40.097458 186.158881L38.3965099 186.158881zM56.8135257 208.301463L52.8219674 208.301463 52.262072 215 47.8112578 215 51.8099033 182 58.145935 182 62 215 57.3649164 215 56.8135257 208.301463zM54.8361735 185.693018L54.6065455 185.693018C54.3315589 189.66979 53.7787507 196.650667 53.5958988 198.869867L53.096954 204.5548 56.5371216 204.5548 56.0310896 198.869867C55.8482376 196.604081 55.2047123 189.714964 54.8361735 185.693018L54.8361735 185.693018zM20.8597348 215L17 215 17 182 23.1120736 182 28.0235613 209.039784C27.6096639 202.569944 27.0582732 194.757572 27.0582732 188.095739L27.0582732 182 30.9123382 182 30.9123382 215 25.310549 215 20.4004788 188.561602C20.7222415 194.658753 20.8597348 199.517839 20.8597348 204.599974L20.8597348 215zM152.539656 123L144 123 144 34 156.623164 34 162.809827 86.6017669 169.244917 34 181 34 181 123 172.091939 123 172.091939 91.2142857C172.091939 88.5554047 172.152634 85.2524204 172.275436 81.3053328 172.399649 77.3596671 172.542212 73.2647059 172.70877 69.0275586 172.872506 64.7889894 173.058826 60.6129821 173.266318 56.4995367 173.470988 52.3846695 173.657307 48.8328594 173.822455 45.8412627L164.912982 113.153609 159.467364 113.153609 151.177545 47.3370611C151.341281 50.4964374 151.506428 54.0695754 151.672987 58.0578969 151.836722 62.0462185 151.982108 66.0771959 152.10491 70.1479854 152.229123 74.2216187 152.333575 78.1061444 152.414031 81.8029843 152.49731 85.502668 152.539656 88.6392945 152.539656 91.2142857L152.539656 123z"/>
    <mask id="mind-health-logo-white-d" fill="#fff">
      <use xlink:href="#mind-health-logo-white-c"/>
    </mask>
    <polygon fill="#FFF" points="188 123 197 123 197 34 188 34" mask="url(#mind-health-logo-white-d)"/>
    <path fill="#FFF" d="M217.108555 34L228.32926 113.029907C227.989935 109.288989 227.653487 105.031936 227.318476 100.251638 226.982027 95.4741828 226.668584 90.6967281 226.372394 85.9178516 226.07908 81.138975 225.849029 76.6117679 225.680805 72.3305429 225.509705 68.0507397 225.42775 64.5401636 225.42775 61.7973927L225.42775 34 234 34 234 123 221.646298 123 210.808052 45.7175608C211.058231 49.3745886 211.268152 53.2591143 211.437815 57.3725597 211.604601 61.486005 211.772825 65.5169825 211.94105 69.4626482 212.107836 73.4111576 212.232926 77.0880915 212.319195 80.4948717 212.402588 83.9044956 212.444285 86.6870786 212.444285 88.8468863L212.444285 123 204 123 204 34 217.108555 34zM252.890738 114.275458C255.036892 114.275458 256.564207 113.174937 257.472684 110.972473 258.381162 108.771432 258.834694 105.259434 258.834694 100.439323L258.834694 57.5588235C258.834694 52.8226028 258.441915 49.1883248 257.659184 46.6517238 256.872214 44.1179666 255.282732 42.851088 252.890738 42.851088L250.163893 42.851088 250.163893 114.275458 252.890738 114.275458zM241 123L241 34 251.03281 34C254.005495 34 256.544427 34.3739496 258.649608 35.1218487 260.756201 35.8697479 262.509576 37.1380484 263.913972 38.9239064 265.318367 40.7111864 266.348352 43.0999137 267.009576 46.0900885 267.670801 49.0816851 268 52.8226028 268 57.3099978L268 100.813273C268 105.051842 267.63124 108.603652 266.885243 111.470125 266.143485 114.33802 265.068289 116.624373 263.665306 118.326341 262.260911 120.029731 260.571115 121.23547 258.587441 121.940713 256.605181 122.6488 254.418053 123 252.023234 123L241 123z" mask="url(#mind-health-logo-white-d)"/>
    <polygon fill="#FFF" points="153.164 137 153.164 177.387 161.834 177.387 161.834 137 171 137 171 226 161.834 226 161.834 185.737 153.164 185.737 153.164 226 144 226 144 137" mask="url(#mind-health-logo-white-d)"/>
    <polygon fill="#FFF" points="178 137 199 137 199 145.726 187.087 145.726 187.087 176.389 197.404 176.389 197.404 184.492 187.087 184.492 187.087 217.274 199 217.274 199 226 178 226" mask="url(#mind-health-logo-white-d)"/>
    <path fill="#FFF" d="M212.593017,197.45562 L220.028934,197.45562 L218.893351,183.494808 C218.725169,181.918014 218.535426,179.549268 218.325559,176.389993 C218.117129,173.233561 217.887137,169.806984 217.632709,166.105997 C217.381156,162.410697 217.128165,158.628666 216.876611,154.76417 C216.625058,150.899674 216.413753,147.430443 216.248447,144.355055 C215.994018,147.346556 215.762589,150.734743 215.555597,154.515352 C215.344292,158.295961 215.134425,162.015432 214.924557,165.670921 C214.71469,169.329254 214.503385,172.757253 214.294955,175.953495 C214.08365,179.154003 213.893907,181.666352 213.727163,183.494808 L212.593017,197.45562 Z M210.198229,137 L223.431373,137 L232,226 L222.297227,226 L220.783595,206.430123 L211.836919,206.430123 L210.324724,226 L201,226 L210.198229,137 Z" mask="url(#mind-health-logo-white-d)"/>
    <polygon fill="#FFF" points="236 137 245.361 137 245.361 217.274 257 217.274 257 226 236 226" mask="url(#mind-health-logo-white-d)"/>
    <polygon fill="#FFF" points="263.332 145.975 254 145.975 254 137 282 137 282 145.975 272.665 145.975 272.665 226 263.332 226" mask="url(#mind-health-logo-white-d)"/>
    <polygon fill="#FFF" points="296.164 137 296.164 177.387 304.835 177.387 304.835 137 314 137 314 226 304.835 226 304.835 185.737 296.164 185.737 296.164 226 287 226 287 137" mask="url(#mind-health-logo-white-d)"/>
  </g>
</svg>
